<svg class="icon" viewBox="0 0 1024 1024" version="1.1" xmlns="http://www.w3.org/2000/svg" p-id="2968" height="128" width="128"><path d="M512 959.488c-10.752 0-16.384-1.536-20.48-5.632-2.048-2.56-229.888-272.384-290.304-403.456-22.016-46.592-33.28-97.792-33.28-147.456 0-186.88 154.112-339.456 344.064-339.456s344.064 153.088 344.064 341.504c0 56.832-10.752 99.84-36.864 148.48-72.192 134.144-284.672 396.8-286.72 399.36-2.56 3.072-7.168 6.144-19.968 6.144l-0.512 0.512z m0-706.56c-83.968 0-152.064 68.096-152.064 152.064s68.096 152.064 152.064 152.064 152.064-68.096 152.064-152.064-68.096-152.064-152.064-152.064z" p-id="2969"></path></svg>