<svg class="icon" viewBox="0 0 1148 1024" version="1.1" xmlns="http://www.w3.org/2000/svg" p-id="2075" height="128" width="128"><path d="M828.192044 76.069386a46.605891 46.605891 0 0 1 46.605891 46.605891v281.778147l-316.06294 179.995166L267.84995 410.881823V122.139577a46.605891 46.605891 0 0 1 46.605891-46.605891h511.593404m0-75.533686H316.59864a121.603877 121.603877 0 0 0-121.603877 122.139577v331.062538l325.169839 196.066163a74.462286 74.462286 0 0 0 74.997986 0l354.633333-201.958862V122.139577A121.603877 121.603877 0 0 0 828.192044 0.5357z" fill="#515151" p-id="2076"></path><path d="M1071.399798 380.882628v538.378399c0 13.928197-19.820896 28.927795-46.605891 28.927795H121.603877c-26.784995 0-46.605891-15.535297-46.605891-28.927795v-535.699899l446.773716 267.849949a74.997986 74.997986 0 0 0 76.069386 0L1071.399798 380.882628m75.533686-129.639375l-586.591389 334.276737L0 251.243253v668.017774a114.104079 114.104079 0 0 0 121.603877 104.46148H1023.186808a114.104079 114.104079 0 0 0 121.603877-104.46148V251.243253z" fill="#515151" p-id="2077"></path><path d="M360.526032 181.066566h385.168228" fill="#FFFFFF" p-id="2078"></path><path d="M745.69426 218.565559H360.526032a37.498993 37.498993 0 1 1 0-75.533686h385.168228a37.498993 37.498993 0 0 1 0 75.533686z" fill="#515151" p-id="2079"></path><path d="M360.526032 291.420745h234.100856" fill="#FFFFFF" p-id="2080"></path><path d="M594.626888 328.919738H360.526032a37.498993 37.498993 0 1 1 0-75.533686h234.100856a37.498993 37.498993 0 0 1 0 75.533686z" fill="#515151" p-id="2081"></path><path d="M1026.936707 146.781772H910.689829v74.997986h115.711178a43.391692 43.391692 0 0 1 43.391692 43.391692v642.839879a43.391692 43.391692 0 0 1-43.391692 43.391692h-910.689829a43.391692 43.391692 0 0 1-43.391692-43.391692v-642.839879a43.391692 43.391692 0 0 1 43.391692-43.391692h116.246878v-74.997986H118.389678A118.389678 118.389678 0 0 0 0 265.17145v642.839879a118.389678 118.389678 0 0 0 118.389678 115.711178h910.689828a118.389678 118.389678 0 0 0 118.389678-118.389677v-642.839879a118.389678 118.389678 0 0 0-120.532477-115.711179z" fill="#515151" p-id="2082"></path></svg>